# xmcd
# Copyright (C) 1995-1998 Ti Kan
#
# Track frame offsets:
#       150
#       14056
#       28698
#       37785
#       50526
#       67852
#
# Disc length: 1141 seconds
#
# Revision: 0
# Processed by: cddbd v1.5.2PL0 Copyright (c) Steve Scherf et al.
# Submitted via: CD-Transfer v1.0
#
DISCID=44047306
DTITLE=PETE RIFLE and THE BUFFALO HEADS - 
DYEAR=1900
DGENRE=
TTITLE0=MUCH TOO YOUNG
TTITLE1=THANK GOD FOR THE RADIO
TTITLE2=HELLO TROUBLE
TTITLE3=AMARILLO BY MORNING
TTITLE4=HIGHWAY 40 BLUES
TTITLE5=LOOKING FOR LOVE
EXTD=
EXTT0=
EXTT1=
EXTT2=
EXTT3=
EXTT4=
EXTT5=
PLAYORDER=
